# xmcd
#
# Track frame offsets:
#	150
#	17303
#	40450
#	66493
#	83238
#	104890
#	118180
#	132350
#	160523
#	202123
#	219526
#	242121
#	259453
#	272433
#	286754
#
# Disc length: 4047 seconds
#
# Revision: 1
# Processed by: cddbd v1.4PL0 Copyright (c) Steve Scherf et al.
# Submitted via: audiograbber 1.82.02
#
DISCID=e40fcd0f
DTITLE=Helen Humes - Sneakin' around
DYEAR=1900
DGENRE=
TTITLE0=Exactly Like You
TTITLE1=Saint Louis Blues
TTITLE2=Every Now and Then
TTITLE3=Sometimes I'm Happy
TTITLE4=One Hundred Years from Now
TTITLE5=Sneaking around with You
TTITLE6=You're Driving me Crazy
TTITLE7=Confessin'
TTITLE8=Tribute to Jimmy Rushing
TTITLE9=Everyday I Have the Blues (take 2)
TTITLE10=Saint Louis Blues (take 1)
TTITLE11=Sometimes I'm Happy (take 1)
TTITLE12=Sneaking around with You (take 2)
TTITLE13=You're Driving me Crazy (take 2)
TTITLE14=Everyday I Have the Blues (take 1)
EXTD=
EXTT0=
EXTT1=
EXTT2=
EXTT3=
EXTT4=
EXTT5=
EXTT6=
EXTT7=
EXTT8=
EXTT9=
EXTT10=
EXTT11=
EXTT12=
EXTT13=
EXTT14=
PLAYORDER=
